/* XPM */
static char *_71f973bd12c4032dca6fb32bab88bfenurGTVcO6NXMH3jU[] = {
/* columns rows colors chars-per-pixel */
"30 30 135 2 ",
"   c None",
".  c #452E0C",
"X  c #46310D",
"o  c #4A340D",
"O  c #4B3B0D",
"+  c #4A401F",
"@  c #64420D",
"#  c #6C490D",
"$  c #6D560F",
"%  c #7D550D",
"&  c #71590E",
"*  c #6B4910",
"=  c #6C5411",
"-  c #725711",
";  c #715A11",
":  c #735E1E",
">  c #705E27",
",  c #706131",
"<  c #81580E",
"1  c #82660E",
"2  c #876A0F",
"3  c #91600F",
"4  c #956511",
"5  c #9A6910",
"6  c #9C7B12",
"7  c #AE7410",
"8  c #B17611",
"9  c #C15F14",
"0  c #C46416",
"q  c #C96C16",
"w  c #C66A1A",
"e  c #C86C19",
"r  c #CC7115",
"t  c #CC751C",
"y  c #D07615",
"u  c #D37A13",
"i  c #D97F13",
"p  c #D07D1D",
"a  c #B68F17",
"s  c #B99113",
"d  c #DD890F",
"f  c #C38413",
"g  c #C88613",
"h  c #CB8F14",
"j  c #D68113",
"k  c #DC8612",
"l  c #DD8A11",
"z  c #D4821C",
"x  c #DC8618",
"c  c #DF8C19",
"v  c #CF9214",
"b  c #C99D14",
"n  c #D19514",
"m  c #DC9313",
"M  c #DF911D",
"N  c #E7990F",
"B  c #E08D13",
"V  c #E18F18",
"C  c #E39313",
"Z  c #E79A11",
"A  c #EA9E13",
"S  c #E1921B",
"D  c #E59C1D",
"F  c #CEA114",
"G  c #D4A315",
"H  c #D7A815",
"J  c #ECA316",
"K  c #ECAB16",
"L  c #EAA31A",
"P  c #ECAB1B",
"I  c #F2A415",
"U  c #F4AE15",
"Y  c #F1A618",
"T  c #F2AB1C",
"R  c #E3B215",
"E  c #EAB716",
"W  c #EDB916",
"Q  c #F4B616",
"!  c #F4BC16",
"~  c #F3B41B",
"^  c #D28222",
"/  c #DC9322",
"(  c #E19423",
")  c #E29F22",
"_  c #E1962B",
"`  c #D6AB24",
"'  c #D2AB30",
"]  c #E6A323",
"[  c #E9A524",
"{  c #ECAD22",
"}  c #E6A029",
"|  c #EAA929",
" . c #F2AE22",
".. c #EDB124",
"X. c #EEB02D",
"o. c #F0B422",
"O. c #F3BD26",
"+. c #F3B52C",
"@. c #F5B92F",
"#. c #EBAE37",
"$. c #EFB335",
"%. c #EDB43F",
"&. c #F2B730",
"*. c #F4B930",
"=. c #F0B73B",
"-. c #F7C115",
";. c #F8C216",
":. c #F6C21D",
">. c #F8C219",
",. c #F6C126",
"<. c #F8C423",
"1. c #F7C428",
"2. c #F7C628",
"3. c #F7C62B",
"4. c #F5C02C",
"5. c #F4C42C",
"6. c #F6C52C",
"7. c #F7C62C",
"8. c #F6C329",
"9. c #F9C82C",
"0. c #F7C830",
"q. c #D4B040",
"w. c #D8B751",
"e. c #F0B940",
"r. c #F2C047",
"t. c #F5C746",
"y. c #F7C942",
"u. c #FACE41",
"i. c #F7C949",
"p. c #F7CC4B",
"a. c #F5C84C",
"s. c #F8CD49",
"d. c #F8CD4A",
"f. c #F6CA53",
"g. c #FBD457",
/* pixels */
"                                                            ",
"                        = 1 1 1 1 -                         ",
"                  $ a b R -.-.-.;.R b s &                   ",
"              O 6 E -.-.<.7.7.7.9.<.! ! W 6 +               ",
"            $ F ! :.0.y.a.=.&.$.=.) C K ! 3.' :             ",
"          = G -.:.d.e.| D N C Z N N B B S @.9.w.,           ",
"        = G -.:.d.e.A N C B ( L Z Z N Z B C f.g.` >         ",
"      X v ~ O.p.e.A N N B u o.O.Z N Z Z Z x _ O.u.q.O       ",
"      4 J T a.e.C Z Z x S [ O.,.o.P Z Z Z Z k ( t.<.6       ",
"    @ Z Y +.#.l l l u M ,.8.,.,.8.8.P A Z Z N l S -.W $     ",
"    7 I  .| l d l y t O...V V V V  .1.K Z Z N N k K -.s     ",
"    f I +.) d l l r t 3.L Z Z Z B x [ J Z Z Z Z B C -.F     ",
"  @ m T +.m l d d r t 3.P C Z Z N B B N Z N Z Z Z l ~ R $   ",
"  % J  .| d l l d u e ..O.P P P P K N N Z L Z Z N l K -.2   ",
"  % I  .[ d d l d l u r ..3.3.3.3.1.K Z Z Z Z Z Z B K ;.2   ",
"  % I T | l l d l d d u t z z p p ..O.K N Z Z Z Z C K ;.2   ",
"  % I  .| l l l l d l k j d k k 7 p 3.K N Z N Z Z B P ;.2   ",
"  @ m T &.l l l d k k L m d d d q p 1.P N Z N Z C B ~ R ;   ",
"    f I +.D l l l k z ,.L m d d e ( 1.P N Z Z N B C ;.b     ",
"    7 I  .X.l l l d q ] ,...P ..[ @.~ C Z N Z Z B P -.s     ",
"    @ Z I @.| l l l i q ) O.8.8.O...C l B N N B C ! W &     ",
"      4 J T @.| l l d j q w ..O.z k k l B B k B ! ! 6       ",
"      X h U T 4.| m l l k 0 / L d d l l l i B ! >.H O       ",
"        = n Q ~ *.| l l l j u k l d l l i B Q >.H -         ",
"          = n I Y @.X.) m l l d d k k j B J U G -           ",
"            * g J Y  .+.+.[ ] ] [ S B C J J n -             ",
"              . 3 C I I Y  . . . .T I I A 5 o               ",
"                  @ 8 g m I Y Y I C f 8 *                   ",
"                        @ % < < < @                         ",
"                                                            "
};
