/* XPM */
static char *result[] = {
/* columns rows colors chars-per-pixel */
"50 50 139 2 ",
"   c #211F34",
".  c #2D2C2D",
"X  c #2E372F",
"o  c #2A3C2D",
"O  c #222035",
"+  c #242B35",
"@  c #252639",
"#  c #262A3A",
"$  c #292C3D",
"%  c #312F30",
"&  c #253037",
"*  c #283637",
"=  c #273339",
"-  c #29373A",
";  c #273838",
":  c #2A3D3A",
">  c #333333",
",  c #383637",
"<  c #343A36",
"1  c #363C3A",
"2  c #3B3B3B",
"3  c #403F3F",
"4  c #2D4531",
"5  c #2B4D32",
"6  c #2B443C",
"7  c #324236",
"8  c #36413D",
"9  c #39443D",
"0  c #2F5034",
"q  c #345F3A",
"w  c #38593F",
"e  c #2D3342",
"r  c #303A46",
"t  c #333E49",
"y  c #413F40",
"u  c #2F4345",
"i  c #2E4D40",
"p  c #304445",
"a  c #3B4442",
"s  c #344D46",
"d  c #3D4945",
"f  c #35434B",
"g  c #38444C",
"h  c #374E4A",
"j  c #3D4B4A",
"k  c #315643",
"l  c #345D48",
"z  c #3E4351",
"x  c #3C4C51",
"c  c #3F5254",
"v  c #396443",
"b  c #3C6D42",
"n  c #38674E",
"m  c #3E7545",
"M  c #3A7C46",
"N  c #3F7D48",
"B  c #3F6E55",
"V  c #3E7152",
"C  c #444343",
"Z  c #494647",
"A  c #414A44",
"S  c #494748",
"D  c #404E4B",
"F  c #4C4B4B",
"G  c #504E4F",
"H  c #445245",
"J  c #445D46",
"K  c #43504D",
"L  c #404554",
"P  c #514F50",
"I  c #425353",
"U  c #4D5350",
"Y  c #4D5C53",
"T  c #45595C",
"R  c #545352",
"E  c #595657",
"W  c #545A54",
"Q  c #585957",
"!  c #595758",
"~  c #575A58",
"^  c #5A5A59",
"/  c #456547",
"(  c #416F45",
")  c #417246",
"_  c #46714A",
"`  c #437F4D",
"'  c #4B625D",
"]  c #556156",
"[  c #516855",
"{  c #576159",
"}  c #5E605F",
"|  c #566C59",
" . c #427958",
".. c #4E5662",
"X. c #4A6462",
"o. c #5D6563",
"O. c #546B61",
"+. c #5C6E65",
"@. c #4D7D62",
"#. c #597063",
"$. c #5B7E6C",
"%. c #626A67",
"&. c #60746A",
"*. c #627A6F",
"=. c #667F74",
"-. c #3F844D",
";. c #40844B",
":. c #44855F",
">. c #419151",
",. c #419956",
"<. c #459958",
"1. c #46A35B",
"2. c #4C8766",
"3. c #4F8C69",
"4. c #588169",
"5. c #4C9D6B",
"6. c #599271",
"7. c #549970",
"8. c #6C857B",
"9. c #69907B",
"0. c #50A170",
"q. c #5DA17A",
"w. c #5FAD7E",
"e. c #709383",
"r. c #719B88",
"t. c #7D9293",
"y. c #6EA386",
"u. c #63AC81",
"i. c #72A58B",
"p. c #60B683",
"a. c #67B288",
"s. c #68B588",
"d. c #77A891",
"f. c #6FBC90",
"g. c #76B495",
"h. c #7BBD9C",
"j. c #77C39A",
"k. c #79C59C",
"l. c None",
/* pixels */
"l.l.l.l.l.l.l.l.l.l.l.l.l.l.l.l.l.l.l.l.l.l.l.l.l.l.l.l.l.l.l.l.l.l.l.l.l.l.l.l.l.l.l.l.l.l.l.l.l.l.",
"l.l.l.l.l.l.l.l.l.l.l.l.l.l.l.l.l.l.l.l.l.l.l.l.l.l.l.l.l.l.l.l.l.l.l.l.l.l.l.l.l.l.l.l.l.l.l.l.l.l.",
"l.l.l.l.l.l.l.l.l.l.l.l.l.l.l.l.l.l.l.l.l.l.l.l.l.l.l.l.l.l.l.l.l.l.l.l.l.l.l.l.l.l.l.l.l.l.l.l.l.l.",
"l.l.l.l.l.l.l.l.l.l.l.l.l.l.l.l.l.l.l.l.l.l.l.l.l.l.l.l.l.l.l.l.l.l.l.l.l.l.l.l.l.l.l.l.l.l.l.l.l.l.",
"l.l.l.l.l.l.l.l.l.l.l.l.l.l.l.l.l.l.l.l.l.l.l.l.l.l.l.l.l.l.l.l.l.l.l.l.l.l.l.l.l.l.l.l.l.l.l.l.l.l.",
"l.l.l.l.l.l.l.l.l.l.l.l.l.l.l.l.l.l.l.l.l.l.l.l.l.l.l.l.l.l.l.l.l.l.l.l.l.l.l.l.l.l.l.l.l.l.l.l.l.l.",
"l.l.l.l.l.l.l.l.l.l.l.l.l.l.l.l.l.l.l.l.l.l.l.l.l.l.l.l.l.l.l.l.l.l.l.l.l.l.l.l.l.l.l.l.l.l.l.l.l.l.",
"l.l.l.l.l.l.l.l.l.l.l.l.l.l.l.l.l.l.l.l.l.l.l.l.l.l.l.l.l.l.l.l.l.l.l.l.l.l.l.l.l.l.l.l.l.l.l.l.l.l.",
"l.l.l.l.l.l.l.l.l.l.l.l.l.l.l.l.l.l.l.l.! ! W ] { [ _ <.1.l.l.l.l.l.l.l.l.l.l.l.l.l.l.l.l.l.l.l.l.l.",
"l.l.l.l.l.l.l.l.l.l.l.l.l.l.l.l.l.l.R E ! Q E U U R / ;.>.J ] | l.l.l.l.l.l.l.l.l.l.l.l.l.l.l.l.l.l.",
"l.l.l.l.l.l.l.l.l.l.l.l.l.l.l.l.^ E F P F y , < , < < 0 q H ~ { Q l.l.l.l.l.l.l.l.l.l.l.l.l.l.l.l.l.",
"l.l.l.l.l.l.l.l.l.l.l.l.l.l.l.^ E F 2 , % . . . > > X o o < 3 S W Q ^ l.l.l.l.l.l.l.l.l.l.l.l.l.l.l.",
"l.l.l.l.l.l.l.l.l.l.l.l.l.l.^ G 3 , . . . X , 1 a 9 4 < X > > > 2 S ~ ^ l.l.l.l.l.l.l.l.l.l.l.l.l.l.",
"l.l.l.l.l.l.l.l.l.l.l.l.l.S F , , , > 1 j c c g f x X.c j 8 > % > > S ! l.l.l.l.l.l.l.l.l.l.l.l.l.l.",
"l.l.l.l.l.l.l.l.l.l.l.l.E 3 , > > a I j r #   @   @ e # u u h d > > > Z ! l.l.l.l.l.l.l.l.l.l.l.l.l.",
"l.l.l.l.l.l.l.l.l.l.l.l.R % . > d g #     O             +   @ t j > > , F l.l.l.l.l.l.l.l.l.l.l.l.l.",
"l.l.l.l.l.l.l.l.l.l.l.E 3 . . K T                       @       e d * % 2 R l.l.l.l.l.l.l.l.l.l.l.l.",
"l.l.l.l.l.l.l.l.l.l.l.F % . : f e   @ O   @   @ L @         O     t D . % C l.l.l.l.l.l.l.l.l.l.l.l.",
"l.l.l.l.l.l.l.l.l.l.l.C % > s @   O           e t.L         O @ O # c > . 2 l.l.l.l.l.l.l.l.l.l.l.l.",
"l.l.l.l.l.l.l.l.l.l.l., % 9 f   O O O O       @ ..e       @   t #   r j , , S l.l.l.l.l.l.l.l.l.l.l.",
"l.l.l.l.l.l.l.l.l.l.l., > d e   O O O O O   O O @             @ O O # I > > 2 l.l.l.l.l.l.l.l.l.l.l.",
"l.l.l.l.l.l.l.l.l.l.l.> > I @     O O   O O O O   @       @         O c < > , l.l.l.l.l.l.l.l.l.l.l.",
"l.l.l.l.l.l.l.l.l.l.l.> > ' =   O   O O O O O       @             @   ' 2 > > l.l.l.l.l.l.l.l.l.l.l.",
"l.l.l.l.l.l.l.l.l.l.l.> > | u   O O O O O   O O           @     O   # O., > > l.l.l.l.l.l.l.l.l.l.l.",
"l.l.l.l.l.l.l.l.l.l.l.> > Y '   O O   O O   O O @         @     O   h #., . > l.l.l.l.l.l.l.l.l.l.l.",
"l.l.l.l.l.l.l.l.l.l.l.> > C @.:   O   O O O O       @             &  .W > . l.l.l.l.l.l.l.l.l.l.l.l.",
"l.l.l.l.l.l.l.l.l.l.l.> , 2 #.6.: @ $   O O O O         O O     + :.4.3 > . l.l.l.l.l.l.l.l.l.l.l.l.",
"l.l.l.l.l.l.l.l.l.l.l.> . > P e.q.s t = @   O   @ @       O O > 3.y.~ , > > l.l.l.l.l.l.l.l.l.l.l.l.",
"l.l.l.l.l.l.l.l.l.l.l.l.% % 2 Q 9.0.V i + O     O     @ $ - n w.i.%.C > > l.l.l.l.l.l.l.l.l.l.l.l.l.",
"l.l.l.l.l.l.l.l.l.l.l.l.. . % C ~ $.g.f.7. .l 6 * : k 2.s.s.h.e.^ G , % > l.l.l.l.l.l.l.l.l.l.l.l.l.",
"l.l.l.l.l.l.l.l.l.l.l.l.l.> > , S | ~ $.r.g.j.p.5.u.k.h.d.8.o.E F , > > l.l.l.l.l.l.l.l.l.l.l.l.l.l.",
"l.l.l.l.l.l.l.l.l.l.l.l.l.l.4 o > A P Z F F %.=.$.=.o.^ R E R Z % . % , l.l.l.l.l.l.l.l.l.l.l.l.l.l.",
"l.l.l.l.l.l.l.l.l.l.l.l.l.) M 5 X . , 2 C F Q G F E E R G C 2 % . . > l.l.l.l.l.l.l.l.l.l.l.l.l.l.l.",
"l.l.l.l.l.l.l.l.l.l.l.l.l.) -.b 7 v 7 % % , 2 2 C C 2 , > > > > > l.l.l.l.l.l.l.l.l.l.l.l.l.l.l.l.l.",
"l.l.l.l.l.l.l.l.l.l.l.l.l.;.m M ;.,.w , > % > > > > , > > > > > l.l.l.l.l.l.l.l.l.l.l.l.l.l.l.l.l.l.",
"l.l.l.l.l.l.l.l.l.l.l.l.;.>.) b M -.m 9 , % > % > > , > % , l.l.l.l.l.l.l.l.l.l.l.l.l.l.l.l.l.l.l.l.",
"l.l.l.l.l.l.l.l.l.l.l.l.( ) ) l.( ( l._ l.l.l.l.l.l.l.l.l.l.l.l.l.l.l.l.l.l.l.l.l.l.l.l.l.l.l.l.l.l.",
"l.l.l.l.l.l.l.l.l.l.l.l.l.l.l.l.l.l.l.l.l.l.l.l.l.l.l.l.l.l.l.l.l.l.l.l.l.l.l.l.l.l.l.l.l.l.l.l.l.l.",
"l.l.l.l.l.l.l.l.l.l.l.l.l.l.l.l.l.l.l.l.l.l.l.l.l.l.l.l.l.l.l.l.l.l.l.l.l.l.l.l.l.l.l.l.l.l.l.l.l.l.",
"l.l.l.l.l.l.l.l.l.l.l.l.l.l.l.l.l.l.l.l.l.l.l.l.l.l.l.l.l.l.l.l.l.l.l.l.l.l.l.l.l.l.l.l.l.l.l.l.l.l.",
"l.l.l.l.l.l.l.l.l.l.l.l.l.l.l.l.l.l.l.l.l.l.l.l.l.l.l.l.l.l.l.l.l.l.l.l.l.l.l.l.l.l.l.l.l.l.l.l.l.l.",
"l.l.l.l.l.l.l.l.l.l.l.l.l.l.l.l.l.l.l.l.l.l.l.l.l.l.l.l.l.l.l.l.l.l.l.l.l.l.l.l.l.l.l.l.l.l.l.l.l.l.",
"l.l.l.l.l.l.l.l.l.l.l.l.l.l.l.l.l.l.l.l.l.l.l.l.l.l.l.l.l.l.l.l.l.l.l.l.l.l.l.l.l.l.l.l.l.l.l.l.l.l.",
"l.l.l.l.l.l.l.l.l.l.l.l.l.l.l.l.l.l.l.l.l.l.l.l.l.l.l.l.l.l.l.l.l.l.l.l.l.l.l.l.l.l.l.l.l.l.l.l.l.l.",
"l.l.l.l.l.l.l.l.l.l.l.l.l.l.l.l.l.l.l.l.l.l.l.l.l.l.l.l.l.l.l.l.l.l.l.l.l.l.l.l.l.l.l.l.l.l.l.l.l.l.",
"l.l.l.l.l.l.l.l.l.l.l.l.l.l.l.l.l.l.l.l.l.l.l.l.l.l.l.l.l.l.l.l.l.l.l.l.l.l.l.l.l.l.l.l.l.l.l.l.l.l.",
"l.l.l.l.l.l.l.l.l.l.l.l.l.l.l.l.l.l.l.l.l.l.l.l.l.l.l.l.l.l.l.l.l.l.l.l.l.l.l.l.l.l.l.l.l.l.l.l.l.l.",
"l.l.l.l.l.l.l.l.l.l.l.l.l.l.l.l.l.l.l.l.l.l.l.l.l.l.l.l.l.l.l.l.l.l.l.l.l.l.l.l.l.l.l.l.l.l.l.l.l.l.",
"l.l.l.l.l.l.l.l.l.l.l.l.l.l.l.l.l.l.l.l.l.l.l.l.l.l.l.l.l.l.l.l.l.l.l.l.l.l.l.l.l.l.l.l.l.l.l.l.l.l.",
"l.l.l.l.l.l.l.l.l.l.l.l.l.l.l.l.l.l.l.l.l.l.l.l.l.l.l.l.l.l.l.l.l.l.l.l.l.l.l.l.l.l.l.l.l.l.l.l.l.l."
};
