/* XPM */
static char *fd9c11937ab047848618939c8cc964892zcKWfM8YzS2rd2c[] = {
/* columns rows colors chars-per-pixel */
"50 50 256 2 ",
"   c #1A0E1B",
".  c #32171A",
"X  c #190828",
"o  c #180A39",
"O  c #1C1737",
"+  c #0A0731",
"@  c #260A2A",
"#  c #261629",
"$  c #341A29",
"%  c #260A37",
"&  c #320E3C",
"*  c #340D34",
"=  c #281638",
"-  c #34133D",
";  c #3A143E",
":  c #361839",
">  c #30092A",
",  c #372531",
"<  c #392419",
"1  c #4F3117",
"2  c #7B2615",
"3  c #793313",
"4  c #421D35",
"5  c #472726",
"6  c #4B3525",
"7  c #52332C",
"8  c #712E31",
"9  c #75141A",
"0  c #5C4313",
"q  c #684616",
"w  c #77491A",
"e  c #745011",
"r  c #744C25",
"t  c #785427",
"y  c #6C4D2B",
"u  c #6F5929",
"i  c #160E4A",
"p  c #290C42",
"a  c #271745",
"s  c #351541",
"d  c #3A1542",
"f  c #3B1B44",
"g  c #381A49",
"h  c #2D1A54",
"j  c #392549",
"k  c #2B2957",
"l  c #382757",
"z  c #2D2E53",
"x  c #373869",
"c  c #2E3369",
"v  c #191B65",
"b  c #431D48",
"n  c #43224C",
"m  c #45264B",
"M  c #4A2B54",
"N  c #472957",
"B  c #522C54",
"V  c #4C3159",
"C  c #54365A",
"Z  c #4C2E4F",
"A  c #783748",
"S  c #673550",
"D  c #443766",
"F  c #5B3A64",
"G  c #573966",
"H  c #472F64",
"J  c #633D68",
"K  c #3C4577",
"L  c #715850",
"P  c #796A57",
"I  c #59426A",
"U  c #434777",
"Y  c #545073",
"T  c #68446A",
"R  c #674A73",
"E  c #73526F",
"W  c #716F72",
"Q  c #97180C",
"!  c #8D1214",
"~  c #A9170A",
"^  c #BA1A0C",
"/  c #B41B15",
"(  c #AC120F",
")  c #982517",
"_  c #883616",
"`  c #8F2B13",
"'  c #A82517",
"]  c #B82418",
"[  c #A92D10",
"{  c #991C23",
"}  c #892429",
"|  c #8E2630",
" . c #B62E20",
".. c #CD1B0B",
"X. c #CB1805",
"o. c #D31B0C",
"O. c #D71806",
"+. c #CA1B14",
"@. c #D61B13",
"#. c #D20E03",
"$. c #E21C08",
"%. c #E11C14",
"&. c #D3220D",
"*. c #D9270B",
"=. c #C92415",
"-. c #D92716",
";. c #DB3519",
":. c #CF280F",
">. c #E6240A",
",. c #E42A16",
"<. c #E83619",
"1. c #F23C19",
"2. c #CC3827",
"3. c #DB3723",
"4. c #D12F28",
"5. c #E93A26",
"6. c #F53F20",
"7. c #865916",
"8. c #914C15",
"9. c #AA4E15",
"0. c #9A6518",
"q. c #986F1C",
"w. c #A76818",
"e. c #B57B19",
"r. c #A7791A",
"t. c #A55B23",
"y. c #95702E",
"u. c #A97A26",
"i. c #BB7A23",
"p. c #AA6F2E",
"a. c #805F25",
"s. c #C3791C",
"d. c #D64227",
"f. c #E84729",
"g. c #F34C2B",
"h. c #F44828",
"j. c #F9552C",
"k. c #F65936",
"l. c #E95030",
"z. c #CA7B26",
"x. c #FD663A",
"c. c #F66231",
"v. c #E9431D",
"b. c #90764E",
"n. c #91654F",
"m. c #FF6C45",
"M. c #FF7648",
"N. c #F65841",
"B. c #BE8317",
"V. c #BA8929",
"C. c #A88538",
"Z. c #B78938",
"A. c #BC9539",
"S. c #B89029",
"D. c #99833C",
"F. c #C5881C",
"G. c #DA9917",
"H. c #D09216",
"J. c #E49B18",
"K. c #E49907",
"L. c #DBA81E",
"P. c #E8A418",
"I. c #F6A919",
"U. c #FDB61A",
"Y. c #F0AB0D",
"T. c #C88B26",
"R. c #C89728",
"E. c #C49A38",
"W. c #D0952B",
"Q. c #CFA329",
"!. c #D5A329",
"~. c #C8A536",
"^. c #D6A736",
"/. c #D9B63A",
"(. c #D6B530",
"). c #E5A726",
"_. c #F3AA22",
"`. c #E9B82C",
"'. c #FCB829",
"]. c #E7BA34",
"[. c #E9AF33",
"{. c #E99E29",
"}. c #FBC736",
"|. c #F4C639",
" X c #DEC73F",
".X c #948652",
"XX c #AB8B47",
"oX c #B09348",
"OX c #BDA643",
"+X c #928C70",
"@X c #D5B142",
"#X c #D8B146",
"$X c #FACD45",
"%X c #312B93",
"&X c #2B27A1",
"*X c #364786",
"=X c #3C5190",
"-X c #3F5AAF",
";X c #444C87",
":X c #4B5789",
">X c #465997",
",X c #595A90",
"<X c #66548D",
"1X c #596797",
"2X c #516992",
"3X c #636998",
"4X c #6F6F8F",
"5X c #4B5BAC",
"6X c #4B64A8",
"7X c #5869A5",
"8X c #4B6AB7",
"9X c #556DB9",
"0X c #5773B6",
"qX c #5572AF",
"wX c #6374AD",
"eX c #3E7CE4",
"rX c #4976C8",
"tX c #5876C6",
"yX c #567CD6",
"uX c #4C72CD",
"iX c #677DCD",
"pX c #547EE7",
"aX c #4F7AE8",
"sX c #7285B4",
"dX c #3F81D4",
"fX c #5583D6",
"gX c #6886D8",
"hX c #7996D9",
"jX c #718ACC",
"kX c #5788E5",
"lX c #578DF2",
"zX c #658AE6",
"xX c #6893E8",
"cX c #789BE8",
"vX c #769BF6",
"bX c #6793F7",
"nX c #7BA4F8",
"mX c #74A5F3",
"MX c #7AA0DE",
"NX c #858A93",
"BX c #849AD7",
"VX c #8495C6",
"CX c #8CA2DD",
"ZX c #819DE4",
"AX c #87A5EB",
"SX c #87A9F6",
"DX c #88B2FD",
"FX c #99B8FA",
"GX c #94AFEF",
"HX c #A2BAF9",
"JX c #9EC1FF",
"KX c #A7C7FE",
"LX c #B2CBFF",
"PX c #B7CBFE",
"IX c #AED1FF",
"UX c #BBD2FF",
/* pixels */
"- s ; - : s - - s s d d s s s s - - : s s & - d d d d s p - - s - s f - & s d f s s - - - & - - - s ",
"- s f ; s f b m n s % & - g : - s s s f M V l s a % s g m n - - s s & n B b ; ; * ; g n m n b f ; s ",
"- - - j m m l D D U x c a = f M & s V G N h 5 6 8 7 1 $ p b G b - * V F j k x x x x l n N D l - - s ",
"n - X a c =X>X8X7X0XnXFXZX2XX G B M l $ a.~.].[.L.P.P.P.s.r = N V Z C O 8XcXDXgX9X6X6X>X*Xz O   g f ",
"Z l a U c O & : n m z VXPXLX:Xj G o t ]./.b.W 3X0XqX2XW C.).G.7 a V . 6XJXUXwX= & j j = = K K O M d ",
"C I z c SXiXc # d G Z z FXPXjXk , E. Xb.jXvXfXtX9X9X0XkXaX1Xp.I.q.@ a xXPXBXa b J M = ,XBXxXz x V f ",
"V V =X# sXIXnX=XX f G k MXUX0X  /.@X3XFXBXE { / ^ ^ / } R kXkXY I.r.o gXFXtXp B f % 7XIXSX>X= >XV s ",
"N V 5X% x GXKX0X= n f U gXjXa u./.1XKX3X{ >.<.,.-.-.$.O.O.} qXbXY U.e c gXiXx % : a cXDXfXs j 6XV f ",
"j D 8X& : c 6Xz % g i i i + 5 '.Y DX<X' j.-...@.o.o.o.@.@.$.! 0XpXn.I.  + i i % % # x >Xz : Z 8XD b ",
"* U 6X@ G C Z - 5 w.w.w.w.0.K.V.tXtX) c.:.O.:.,.9 ! ,.@.o.&.>.8 kX6XG.T.u.u.u.u.q.$ - > = I j 9XV d ",
"> =X0X@ d N g p y U.u.XXC.Z.C.E lXS g.5.O.+.5.Q V.0.( <.;...<.*.,XkXL Z.oXoXXXoX'.5 h C I M = fXl & ",
"@ ;XxXc @ * : o y E.-XaXdXeXaXpXrX' h...o.j.2.8.}.I.3 +.k.<.o.j.| fXmXmXvXvXbX;XG.7 p s *   K nXx & ",
"* K nXgX>XK 0Xh t ~.jXwX8 A A L 8 @.-.O.-.x._ |.A.W.G.Q 5.k.o.5.+.A A A n.A fX3XG.< c 7XK 5XAXGXz n ",
": a hXKXHXJXFXa w Q.BX,X*.%.$.>.*.o.o.#.f.2.Z.}.,XW U.8.=.m.*.#.X.1.6.h.>.~ 0X2XJ.5 %XmXAXHXKXtXj F ",
"f j c CXPXKXqX+ t !.jX3Xf.;.@.O.,.-.5.;.,.[ #XA.gXqXJ.z./ x.:.-.;.3.;.<.@.( 9X3XP.6 + 0XGXKXhXk C m ",
"s n V j U c < C.`.e.tX,Xf.;.@.=.=.4.5.c.h.) $Xp.ZX9XW.H.] c.g.k.f.2...O.*.( 0X1XH.P.q.# c x X m Z = ",
"s * b M X w $XOXW wXbX:Xd.-.5.[ w.9.[ ( 3.~ [.XXGXtXE.F.=.3.' 9.w.w./ O.@./ 8XzXwXP {.{.1 % C f - s ",
"- g T % t $Xn.tXmXtXJ } &...g.' Q.A.R.G.` Q !.C.ZX8X~.e.! 9.@XOX~.s./ ,.o.X.8 R yXlX6Xy.U.7 D T - - ",
"- I l 6 }.P vXhXS ' *.$.O.-.m.] S.b.9XD.!.! s.S.yXwX/.9.| #X+X5XC.w.4.,.o.&.>.O.~ I bXuXy.P.$ I M & ",
"f I # #XC.cXZX8 <.5.o.O.X.:.M.3.y.|.7XvX.Xi._ P.6X4X`.2 !.+XbXW I.[ l.@.O.o.o.3.g.-.S zX8XT.V.O F = ",
"M g t ].sXFX8 j.f.X.-.l.k.g.g.j.' Z.R.4X-XOXw H.L .Xe.7.XXuX4X(.w.d.g.*.;.;.-.+.-.k.;.S bXW |.5 l f ",
"M = ^.XXFX3X;.c.o...l.m.k.2.' ( ( 9 9.F.b.y.y.e B.~.1 F.u OXQ.8.!  .~ ' =.g.x.k.;.+.x.^ 0XhX~.V.& n ",
"g 5 _.W nX} x.;.O.3.f.Q 8.E.^.^.T.z.8.3 7.e.'.0 r.e e }.u.e 2 t.E.@X@X@XC._ ' m.M.;.d.h.S DX.X(.- n ",
"p r ).sXgX] j...;.=.2 E.}.`.oXXXZ.A.Q.K.e.q e 7 &Xv 6 q e T.).~.A.oXZ.A.$X$Xr.` l.x.-.j.} DXNX'.5 a ",
"% t G.wXtX] h.@.! 7.'.).P tXZXGXSXhX0X2Xu H.t &X-X%Xi e.S.L 2XfXZXAXSXgX7Xn.'.).3 ' o.h.{ SXNX`.7 p ",
"p e G.tX9X^ <.+.! 8.!._.b.3X0XiXjXsX3XW .XS.q %X%Xv o q.Z..X4X3X9X0XiXwX3XC.'.T.3 ] &.1.{ SXNX`.7 & ",
"p 0 P.3XyX' ,.@.>.+.! u.'.}.!.E.R.Q.(.^.w.q 0.y i i t e q e.!.`.^.^.W.G.U.I.7.) g.5.o.>.| DX+X[.5 s ",
"g : Y.W kX8 $.&.o.-.5.( ` w.T.T.i.p.} _ q.W.U.1 W.r.q '.e.8.2 _ t.i.T.i.7.` 2.N.;.o.-.O.T nX+X!.@ g ",
"n # H.C.aX3XX.O.+.o.f.k.g.2.2.=./ ! i.~.W y.0.7.B.S.q e.L b.R.p.! ../ ^ ;.j.f.o.#.:.h.Q jXhX~.q.g n ",
"b n 7 I.,XlXS O.%.+...;.l.g.f.f.' W.C.jX8XS.3 G.Y b.T.3 S.yX3XQ.A.] x.5.-.*.X.O.;.g.#.Y nX+X|.< G d ",
"s F o H.V.8XzXS X.$.-.O.#.5.m.4.t.@X0XfXXXu.8.L.8X4X X2 E.oXbX:X$X` f.c.O.o.&.<.1.~ Y vX1X@Xq.j J p ",
"& G H < I.n.uXxXY ) X.O.&.x.M.] T.b.2XA.(.9 s.S.gX6X(.t.}  XXX2XC.w.4.m.@.@.*.^ } ,XbX8XoX).@ f f s ",
"; - T l 7 U.p.6XkXyX,X8 o.l.m. .!.T.G.V.) ( ^.p.SXqX~.T.( _ ^.~.Q.i.2.k.&.+.S 7XpXpX:XOX[.< H b & - ",
"- f C C X 1 P.J.n.3XbX>X&.;.g.` t.[ [  .h.' ]..XDXtXE.W./ ,.~ ' 9.8.[ 5.%.~ rXyXW p.U.R.. % B R N - ",
"s F = j 2X;X# 7.P.B.BX3X3.3.&.+.@.;.j.j.g.) ].p.AXyXT.W.~ f.g.k.N.;.o.&.O.( 9X1XK.H.3 O =X:X= = T m ",
"M j K FXLXUXjX+ y Q.CX4X;.5.o.*.-.-.=.;.k.] ^.R.iX7XP.i.] g...;.f.-.&.&.,.^ rXwXG.5 i kXGXIXGXc m I ",
"g z AXcXvXHXFXv t Q.hX4XX.*.#.O.X.O.*.k.x.2.w.}.Y b.'.8.3.f.o.O.X.O.%.f.6.^ 8X1XG.5 K vXcXKXUXCXa B ",
"d U vX0Xx c >Xp t R.iXjXJ T T T S +.O.f.M.x.` /.@X{.T.Q c.-.X.$./ J E E E T zX1XG.5 c >Xk ;XGXFXl 4 ",
"* ;XxXz $ V j % t R.=XfXrXaXuXkXfX{ ,.=.x.M.l.3 }.[.2 N.5.O.=.O.8 kXzXcXcXcXgXY K.4 & g m @ U SXx * ",
"* ;X8X% F V B p y '.V.S.T.T.H.n.vXI <.l.*.l.m./ a.8.:.g.X.O.*.X.1XpXy.R.E.E.OX^.U.5 b M F C # yXx & ",
"f U 6X: M X @ % 5 r t w w y T.V.hXcX2 c.k.o.-.<.! Q 5.X.X.%.O.8 zX1XJ.u.w t t r y * % @ @ I : 9Xl ; ",
"V D 6X: = :XjXK % p p a k i . }.P FXwX! j.x.<.,.-.O.&.:.<.O.8 fXaXy.L.  h v p p % = ;X0Xx j l 8Xj f ",
"M G 2Xo U LXAXtX% G m K xXZXk q.|.W KXsX} -.j.k.h.v.5.,.X.A iXpXL U.1 *XcXzXz m b a HXnXgXl z >XM j ",
"m I *XO CXSXfXK @ T N = gXFXfXX oX].W SXnX4X| | ' ' { A 1XlXrXP U.7.o AXFXtX# J N X 1XIXDX6XO ;XZ f ",
"n I k K cX>Xz - G F > c AXKXsXo @ D.}..X4XxXbXkXuXyXaXaXuXW V.I.t % a HXKXgXa b R Z % D sXxXz c G b ",
"l M O K z O z l g = z jXKXJXx j M o 6 ^.|.oXb.W 4X4XW b.T.Y.e.$ N F X 1XIXGXqXk j N l k O z K O N n ",
"g :   a x ;X>X6X9XtXmXDXBXK l R f V N % 6 B.G.K.K.P.K.H.0.5 a G G g m O ;XgXvXgXtX8X6X>XK x =   s f ",
"; f : M M V M l j l l k = j G f - s V I H k j m 7 < $ % p n F M * s m C j l k k k j j Z Z C C C f & ",
"; s s g - f n N n - * * s f - - ; - * s m Z N f s d s & f f & - s - - s M n ; * - ; d d s s ; f d s ",
"s - - - - - - & - - s s s - s - - - s s ; & & s ; s s s & s s s - s s - - - s s s ; - - s s - - - s "
};
